PathFileType  4	(X/Y/Z) C:\Users\antoi\Documents\MyRepositories\mobilecap\ResultsAnalysis
DataRate	CameraRate	NumFrames	NumMarkers	Units	OrigDataRate	OrigDataStartFrame	OrigNumFrames
100.0	100.0	6	51	mm	100.0	107	170
Frame#	Time	r_knee			r_shank_antsup			r_ankle			r_calc			r_5meta			r_toe			L_knee			L_shank_antsup			L_ankle			L_calc			L_5meta			L_toe			r_sh2			r_sh3			r_sh4			L_sh2			L_sh3			r_thigh1			r_thigh2			r_thigh3			r_thigh4			r_thigh5			L_thigh1			L_thigh2			L_thigh3			L_thigh4			r.ASIS			r.PSIS			L.ASIS			L.PSIS			C7			R_Shoulder			L_Shoulder			R_Sternum			L_Sternum			R_humerus			R_elbow_med			R_elbow_lat			R_forearm			R_wrist_radius			R_wrist_ulna			L_humerus			L_elbow_med			L_elbow_lat			L_forearm			L_wrist_radius			L_wrist_ulna			R_HJC			L_HJC			R_HJC_reg			L_HJC_reg			
		X1	Y1	Z1	X2	Y2	Z2	X3	Y3	Z3	X4	Y4	Z4	X5	Y5	Z5	X6	Y6	Z6	X7	Y7	Z7	X8	Y8	Z8	X9	Y9	Z9	X10	Y10	Z10	X11	Y11	Z11	X12	Y12	Z12	X13	Y13	Z13	X14	Y14	Z14	X15	Y15	Z15	X16	Y16	Z16	X17	Y17	Z17	X18	Y18	Z18	X19	Y19	Z19	X20	Y20	Z20	X21	Y21	Z21	X22	Y22	Z22	X23	Y23	Z23	X24	Y24	Z24	X25	Y25	Z25	X26	Y26	Z26	X27	Y27	Z27	X28	Y28	Z28	X29	Y29	Z29	X30	Y30	Z30	X31	Y31	Z31	X32	Y32	Z32	X33	Y33	Z33	X34	Y34	Z34	X35	Y35	Z35	X36	Y36	Z36	X37	Y37	Z37	X38	Y38	Z38	X39	Y39	Z39	X40	Y40	Z40	X41	Y41	Z41	X42	Y42	Z42	X43	Y43	Z43	X44	Y44	Z44	X45	Y45	Z45	X46	Y46	Z46	X47	Y47	Z47	X48	Y48	Z48	X49	Y49	Z49	X50	Y50	Z50	X51	Y51	Z51	

107	1.06000000	914.10548	487.76798	-49.81204	926.85639	422.40746	-59.76569	623.89599	220.24846	-108.27207	562.34893	229.76312	-165.31764	687.27592	76.25790	-63.55875	732.48863	82.69885	-115.94603	880.28187	490.86292	-364.61081	901.35222	402.92162	-375.62311	790.80777	97.00488	-338.58414	722.66881	62.80481	-291.24934	907.41373	40.81938	-359.80727	947.61920	58.06428	-304.54715	845.70850	341.77771	-80.64642	872.10529	467.05378	-27.74162	789.66043	385.83621	-33.87046	816.03141	426.41654	-392.24136	792.42045	307.81024	-389.55114	945.43002	790.21814	-103.37952	981.17026	684.45916	-92.88062	962.41833	659.40350	-30.41183	875.05396	772.36965	-17.80911	908.70417	664.19587	-9.86101	904.84414	815.83581	-378.57695	915.75948	675.25304	-388.55206	793.36258	807.14585	-388.45570	801.73404	670.76309	-371.76149	906.55519	957.18840	-81.40339	722.84944	995.02045	-158.46329	929.91206	943.55502	-314.25809	727.94327	996.67198	-256.39977	784.92542	1434.60788	-349.06978	862.42359	1452.46982	-182.72641	840.02435	1316.36586	-480.37603	892.07514	1344.52789	-301.25377	893.47654	1327.80102	-336.03256	858.15979	1251.89290	-27.75483	780.53967	1171.98829	-8.76944	831.71089	1178.43630	27.95464	887.55749	1045.68004	48.76825	910.47554	941.66445	44.19350	893.88066	949.53636	84.96146	853.26016	1073.32195	-497.43456	824.19149	977.77607	-426.57708	833.99334	974.32703	-483.71392	929.38137	859.71268	-485.69238	1001.35132	782.23418	-456.21758	962.71459	758.53519	-464.13387	834.74458	876.52234	-113.87244	833.34997	879.96236	-304.50537	841.95662	880.28825	-118.19589	849.99403	882.89288	-272.68128	
108	1.07000000	928.43955	490.37206	-50.82590	942.76369	425.61691	-60.38816	646.50622	213.74993	-108.99080	584.91102	220.49492	-166.39257	715.32667	72.61567	-63.24741	760.36427	80.38505	-115.58770	882.28844	490.77642	-364.84475	902.77260	402.70331	-375.75655	790.79206	97.37817	-338.49745	722.69522	63.00524	-291.14650	907.42612	40.80819	-359.79510	947.67185	57.97192	-304.55069	864.48253	342.58223	-81.24886	886.32973	468.71288	-28.87107	806.36290	384.92194	-34.79279	817.54975	426.63395	-392.23837	793.38348	308.10501	-389.48444	954.53895	793.29032	-104.85290	992.00900	688.13466	-94.75905	974.59264	662.81438	-31.77802	885.71958	774.54304	-17.93841	921.49199	666.76967	-10.43466	911.01528	815.42596	-378.85413	920.14365	675.03460	-388.70779	799.39982	808.18606	-388.28195	805.54705	671.87925	-372.00880	914.53423	958.52306	-82.14373	730.57869	996.02471	-158.63309	937.27883	943.71922	-314.94765	735.40089	997.40249	-256.66769	793.05115	1435.58349	-349.60325	870.46003	1452.98148	-183.38006	847.98428	1317.52083	-480.98923	900.14929	1345.26502	-301.92174	901.38507	1328.58940	-336.70084	866.19927	1252.52885	-28.29908	788.58188	1172.57996	-9.37465	839.79011	1179.05808	27.37392	895.65074	1046.41989	48.40703	918.70693	942.44527	43.92340	902.01203	950.28577	84.65836	863.83329	1074.84312	-498.05737	835.53555	978.91070	-427.20794	845.73892	975.53355	-484.32457	943.55793	862.61425	-485.34765	1016.56941	786.67648	-454.98661	978.60455	762.32485	-463.58702	842.59050	877.72237	-113.94613	840.59392	880.30415	-304.58758	849.87927	881.23360	-118.51074	857.47904	883.40428	-273.00064	
109	1.08000000	942.50597	492.92552	-51.82250	958.43242	428.84575	-60.92525	669.60983	206.89749	-109.47970	608.01534	210.86135	-167.14675	743.86456	68.88915	-62.80111	788.62724	78.02435	-115.12137	884.41135	490.65650	-365.00955	904.25489	402.42347	-375.81963	790.80339	97.73493	-338.36475	722.73667	63.22826	-291.01488	907.43323	40.80705	-359.78016	947.71392	57.86880	-304.54121	883.27945	343.39173	-81.65306	900.30917	470.25598	-30.02910	823.03260	383.90600	-35.66330	819.15126	426.82245	-392.17426	794.41444	308.33366	-389.35836	963.49375	796.08463	-106.28936	1002.58248	691.54526	-96.61024	986.56368	666.05672	-33.21397	896.21498	776.54840	-18.13121	933.94981	669.20091	-10.99094	917.24419	814.92794	-379.07012	924.59980	674.63816	-388.78162	805.54772	809.08805	-388.13702	809.53296	672.82822	-372.21415	922.46159	959.67463	-82.87982	738.24035	996.85869	-158.83617	944.64010	943.78099	-315.63456	742.88617	997.98616	-256.94765	801.14970	1436.46611	-349.93930	878.48909	1453.32682	-183.82781	855.88961	1318.64501	-481.47780	908.22311	1345.89302	-302.45136	909.26747	1329.27914	-337.24221	874.24823	1252.87299	-28.75882	796.61483	1172.89848	-9.92862	847.82073	1179.39763	26.88925	903.68662	1046.83959	48.07890	926.83570	942.88099	43.66352	910.02148	950.68863	84.35676	874.33408	1076.36759	-498.60713	846.82280	980.04389	-427.81273	857.42703	976.76546	-484.90789	957.46491	865.49012	-485.03517	1031.32446	791.15319	-453.81715	994.11198	766.11241	-463.09899	850.39952	878.74460	-114.05988	847.84985	880.53177	-304.70475	857.70523	882.00649	-118.91287	865.02004	883.78134	-273.40144	
110	1.09000000	956.32217	495.39240	-52.80716	973.88363	432.04907	-61.43722	693.21732	199.78131	-109.75981	631.66400	200.95391	-167.60648	772.84637	65.18031	-62.21061	817.25046	75.71161	-114.54393	886.65788	490.49380	-365.12776	905.82406	402.07827	-375.83457	790.88013	98.04961	-338.19079	722.79576	63.46159	-290.85880	907.43769	40.81693	-359.76479	947.74354	57.75316	-304.52242	902.08324	344.18617	-81.92071	914.13007	471.60688	-31.17059	839.72101	382.73379	-36.48651	820.86608	426.97002	-392.09168	795.52984	308.50741	-389.21030	972.27829	798.58814	-107.63557	1012.90252	694.69572	-98.37889	998.27529	669.10556	-34.65980	906.50273	778.37522	-18.38529	946.02680	671.48968	-11.53904	923.52507	814.35911	-379.22482	929.15827	674.08456	-388.76472	811.77998	809.85828	-388.03450	813.72455	673.58282	-372.36965	930.33286	960.61889	-83.60131	745.84028	997.52369	-159.07254	952.00067	943.73539	-316.30715	750.39830	998.43159	-257.24716	809.23028	1437.24824	-350.07328	886.53617	1453.50449	-184.04972	863.76050	1319.73119	-481.83892	916.30707	1346.41032	-302.83678	917.13538	1329.86989	-337.64901	882.29757	1252.92124	-29.12392	804.63156	1172.93457	-10.43671	855.79504	1179.44271	26.49014	911.65363	1046.93422	47.79228	934.85876	942.96669	43.42163	917.91970	950.75066	84.06571	884.76336	1077.87320	-499.07747	858.05577	981.14196	-428.39320	869.08467	977.98470	-485.46287	971.09530	868.32903	-484.76555	1045.66811	795.59756	-452.72726	1009.23201	769.84657	-462.65878	858.15764	879.57535	-114.21673	855.11621	880.64742	-304.86088	865.43161	882.59562	-119.39143	872.60270	884.02387	-273.87230	
111	1.10000000	969.91127	497.73826	-53.78822	989.13894	435.18486	-61.97808	717.31738	192.50281	-109.84945	655.84381	190.86656	-167.79925	802.23114	61.60011	-61.47099	846.19848	73.54315	-113.85596	889.02894	490.28022	-365.23085	907.50364	401.67270	-375.83012	791.04412	98.31302	-337.99242	722.87105	63.68921	-290.68756	907.44201	40.83629	-359.75072	947.76024	57.62407	-304.49842	920.86899	344.93795	-82.12433	927.85244	472.71585	-32.25050	856.49203	381.35431	-37.24385	822.71712	427.07066	-392.03578	796.74573	308.64544	-389.07578	980.90390	800.82008	-108.85114	1022.99105	697.60524	-100.01987	1009.68014	671.94575	-36.06152	916.55282	780.01859	-18.68873	957.71343	673.63333	-12.09310	929.85493	813.73197	-379.31894	933.83610	673.41068	-388.66149	818.07089	810.51341	-387.98884	818.13993	674.14508	-372.50223	938.14175	961.34089	-84.28901	753.38980	998.02518	-159.33961	959.36320	943.57267	-316.94687	757.93167	998.74892	-257.57021	817.30142	1437.92494	-350.00464	894.62404	1453.51313	-184.03297	871.61860	1320.77452	-482.07034	924.40018	1346.81390	-303.07376	924.99805	1330.36104	-337.91485	890.33553	1252.67778	-29.38625	812.62520	1172.68414	-10.90586	863.71329	1179.18187	26.15615	919.53896	1046.69984	47.54901	942.77085	942.70028	43.19546	925.71602	950.47876	83.78742	895.11397	1079.34269	-499.47078	869.23234	982.17846	-428.95095	880.74507	979.14179	-485.99180	984.44948	871.12393	-484.54518	1059.65977	799.91977	-451.73635	1023.95691	773.47622	-462.25623	865.84933	880.20853	-114.40869	862.38952	880.64992	-305.04915	873.06241	882.99297	-119.91716	880.20347	884.13087	-274.38589	
112	1.11000000	983.29703	499.93603	-54.76940	1004.21823	438.22165	-62.58482	741.88472	185.16267	-109.76596	680.53502	180.69115	-167.74972	831.98426	58.25131	-60.59461	875.42451	71.60117	-113.07361	891.51998	490.01285	-365.35251	909.30769	401.21940	-375.83877	791.29448	98.53344	-337.79416	722.95835	63.89846	-290.51480	907.44809	40.86112	-359.73994	947.76447	57.48203	-304.47295	939.60767	345.62261	-82.33162	941.50866	473.56204	-33.23051	873.41840	379.73352	-37.89800	824.70991	427.12791	-392.04120	798.06900	308.77225	-388.98053	989.41049	802.82897	-109.91054	1032.87801	700.30304	-101.49847	1020.75124	674.57514	-37.37561	926.34448	781.47612	-19.02129	969.02396	675.62214	-12.66163	936.23443	813.05302	-379.35529	938.63503	672.65539	-388.49059	824.40477	811.07236	-388.01108	822.78651	674.55069	-372.65887	945.88092	961.83888	-84.91974	760.90208	998.37101	-159.63545	966.73060	943.28207	-317.53212	765.48330	998.94528	-257.91583	825.37227	1438.49539	-349.73777	902.76384	1453.35309	-183.77663	879.48541	1321.77246	-482.17005	932.49021	1347.10100	-303.16023	932.86377	1330.75316	-338.03553	898.34954	1252.15418	-29.54300	820.59063	1172.15010	-11.34503	871.58002	1178.60925	25.86547	927.33612	1046.13804	47.34594	950.57164	942.08759	42.97617	933.41394	949.87925	83.51721	905.37307	1080.76520	-499.79603	880.33831	983.14086	-429.49169	892.43274	980.18800	-486.50098	997.52663	873.86956	-484.37688	1073.33899	804.03460	-450.85790	1038.27999	776.96015	-461.89065	873.46254	880.64676	-114.61906	869.66948	880.53508	-305.25416	880.60342	883.19796	-120.45363	887.80238	884.10037	-274.90892	
